<svg width="104" height="73" viewBox="0 0 104 73" fill="none" xmlns="http://www.w3.org/2000/svg">
<path d="M25.26 58.48C22.02 58.48 19.04 57.96 16.32 56.92C13.6 55.84 11.24 54.34 9.24 52.42C7.24 50.46 5.68 48.18 4.56 45.58C3.44 42.98 2.88 40.12 2.88 37C2.88 33.88 3.44 31.02 4.56 28.42C5.68 25.82 7.24 23.56 9.24 21.64C11.28 19.68 13.66 18.18 16.38 17.14C19.1 16.06 22.1 15.52 25.38 15.52C28.7 15.52 31.74 16.06 34.5 17.14C37.26 18.22 39.6 19.84 41.52 22L37.8 25.72C36.08 24.04 34.2 22.82 32.16 22.06C30.16 21.26 27.98 20.86 25.62 20.86C23.22 20.86 20.98 21.26 18.9 22.06C16.86 22.86 15.08 23.98 13.56 25.42C12.08 26.86 10.92 28.58 10.08 30.58C9.28 32.54 8.88 34.68 8.88 37C8.88 39.28 9.28 41.42 10.08 43.42C10.92 45.38 12.08 47.1 13.56 48.58C15.08 50.02 16.86 51.14 18.9 51.94C20.94 52.74 23.16 53.14 25.56 53.14C27.8 53.14 29.94 52.8 31.98 52.12C34.06 51.4 35.98 50.22 37.74 48.58L41.16 53.14C39.08 54.9 36.64 56.24 33.84 57.16C31.08 58.04 28.22 58.48 25.26 58.48ZM35.4 52.36V36.76H41.16V53.14L35.4 52.36Z" fill="black"/>
<path d="M53.54 43.12C52.4067 43.12 51.4067 42.8867 50.54 42.42C49.6867 41.9533 49.02 41.3133 48.54 40.5C48.0733 39.6867 47.84 38.7533 47.84 37.7C47.84 36.6467 48.0667 35.7133 48.52 34.9C48.9867 34.0867 49.62 33.4533 50.42 33C51.2333 32.5333 52.1467 32.3 53.16 32.3C54.1867 32.3 55.0933 32.5267 55.88 32.98C56.6667 33.4333 57.28 34.0733 57.72 34.9C58.1733 35.7133 58.4 36.6667 58.4 37.76C58.4 37.84 58.3933 37.9333 58.38 38.04C58.38 38.1467 58.3733 38.2467 58.36 38.34H49.34V36.96H57.36L56.58 37.44C56.5933 36.76 56.4533 36.1533 56.16 35.62C55.8667 35.0867 55.46 34.6733 54.94 34.38C54.4333 34.0733 53.84 33.92 53.16 33.92C52.4933 33.92 51.9 34.0733 51.38 34.38C50.86 34.6733 50.4533 35.0933 50.16 35.64C49.8667 36.1733 49.72 36.7867 49.72 37.48V37.8C49.72 38.5067 49.88 39.14 50.2 39.7C50.5333 40.2467 50.9933 40.6733 51.58 40.98C52.1667 41.2867 52.84 41.44 53.6 41.44C54.2267 41.44 54.7933 41.3333 55.3 41.12C55.82 40.9067 56.2733 40.5867 56.66 40.16L57.72 41.4C57.24 41.96 56.64 42.3867 55.92 42.68C55.2133 42.9733 54.42 43.12 53.54 43.12ZM64.1061 43.12C63.2261 43.12 62.3861 43 61.5861 42.76C60.7994 42.52 60.1794 42.2267 59.7261 41.88L60.5261 40.36C60.9794 40.6667 61.5394 40.9267 62.2061 41.14C62.8728 41.3533 63.5528 41.46 64.2461 41.46C65.1394 41.46 65.7794 41.3333 66.1661 41.08C66.5661 40.8267 66.7661 40.4733 66.7661 40.02C66.7661 39.6867 66.6461 39.4267 66.4061 39.24C66.1661 39.0533 65.8461 38.9133 65.4461 38.82C65.0594 38.7267 64.6261 38.6467 64.1461 38.58C63.6661 38.5 63.1861 38.4067 62.7061 38.3C62.2261 38.18 61.7861 38.02 61.3861 37.82C60.9861 37.6067 60.6661 37.32 60.4261 36.96C60.1861 36.5867 60.0661 36.0933 60.0661 35.48C60.0661 34.84 60.2461 34.28 60.6061 33.8C60.9661 33.32 61.4728 32.9533 62.1261 32.7C62.7928 32.4333 63.5794 32.3 64.4861 32.3C65.1794 32.3 65.8794 32.3867 66.5861 32.56C67.3061 32.72 67.8928 32.9533 68.3461 33.26L67.5261 34.78C67.0461 34.46 66.5461 34.24 66.0261 34.12C65.5061 34 64.9861 33.94 64.4661 33.94C63.6261 33.94 62.9994 34.08 62.5861 34.36C62.1728 34.6267 61.9661 34.9733 61.9661 35.4C61.9661 35.76 62.0861 36.04 62.3261 36.24C62.5794 36.4267 62.8994 36.5733 63.2861 36.68C63.6861 36.7867 64.1261 36.88 64.6061 36.96C65.0861 37.0267 65.5661 37.12 66.0461 37.24C66.5261 37.3467 66.9594 37.5 67.3461 37.7C67.7461 37.9 68.0661 38.18 68.3061 38.54C68.5594 38.9 68.6861 39.38 68.6861 39.98C68.6861 40.62 68.4994 41.1733 68.1261 41.64C67.7528 42.1067 67.2261 42.4733 66.5461 42.74C65.8661 42.9933 65.0528 43.12 64.1061 43.12ZM74.7256 43.12C73.659 43.12 72.8323 42.8333 72.2456 42.26C71.659 41.6867 71.3656 40.8667 71.3656 39.8V30.08H73.2856V39.72C73.2856 40.2933 73.4256 40.7333 73.7056 41.04C73.999 41.3467 74.4123 41.5 74.9456 41.5C75.5456 41.5 76.0456 41.3333 76.4456 41L77.0456 42.38C76.7523 42.6333 76.399 42.82 75.9856 42.94C75.5856 43.06 75.1656 43.12 74.7256 43.12ZM69.5656 33.98V32.4H76.3256V33.98H69.5656ZM79.3669 43V32.4H81.2869V43H79.3669ZM80.3269 30.36C79.9535 30.36 79.6402 30.24 79.3869 30C79.1469 29.76 79.0269 29.4667 79.0269 29.12C79.0269 28.76 79.1469 28.46 79.3869 28.22C79.6402 27.98 79.9535 27.86 80.3269 27.86C80.7002 27.86 81.0069 27.98 81.2469 28.22C81.5002 28.4467 81.6269 28.7333 81.6269 29.08C81.6269 29.44 81.5069 29.7467 81.2669 30C81.0269 30.24 80.7135 30.36 80.3269 30.36ZM84.9528 43V32.4H86.7928V35.28L86.6128 34.56C86.9061 33.8267 87.3995 33.2667 88.0928 32.88C88.7861 32.4933 89.6395 32.3 90.6528 32.3V34.16C90.5728 34.1467 90.4928 34.14 90.4128 34.14C90.3461 34.14 90.2795 34.14 90.2128 34.14C89.1861 34.14 88.3728 34.4467 87.7728 35.06C87.1728 35.6733 86.8728 36.56 86.8728 37.72V43H84.9528ZM97.6416 43.12C96.5082 43.12 95.5082 42.8867 94.6416 42.42C93.7882 41.9533 93.1216 41.3133 92.6416 40.5C92.1749 39.6867 91.9416 38.7533 91.9416 37.7C91.9416 36.6467 92.1682 35.7133 92.6216 34.9C93.0882 34.0867 93.7216 33.4533 94.5216 33C95.3349 32.5333 96.2482 32.3 97.2616 32.3C98.2882 32.3 99.1949 32.5267 99.9816 32.98C100.768 33.4333 101.382 34.0733 101.822 34.9C102.275 35.7133 102.502 36.6667 102.502 37.76C102.502 37.84 102.495 37.9333 102.482 38.04C102.482 38.1467 102.475 38.2467 102.462 38.34H93.4416V36.96H101.462L100.682 37.44C100.695 36.76 100.555 36.1533 100.262 35.62C99.9682 35.0867 99.5616 34.6733 99.0416 34.38C98.5349 34.0733 97.9416 33.92 97.2616 33.92C96.5949 33.92 96.0016 34.0733 95.4816 34.38C94.9616 34.6733 94.5549 35.0933 94.2616 35.64C93.9682 36.1733 93.8216 36.7867 93.8216 37.48V37.8C93.8216 38.5067 93.9816 39.14 94.3016 39.7C94.6349 40.2467 95.0949 40.6733 95.6816 40.98C96.2682 41.2867 96.9416 41.44 97.7016 41.44C98.3282 41.44 98.8949 41.3333 99.4016 41.12C99.9216 40.9067 100.375 40.5867 100.762 40.16L101.822 41.4C101.342 41.96 100.742 42.3867 100.022 42.68C99.3149 42.9733 98.5216 43.12 97.6416 43.12Z" fill="black"/>
</svg>
